<svg width="10" height="16" viewBox="0 0 10 16" fill="none" xmlns="http://www.w3.org/2000/svg">
<path d="M2.50001 15.5C2.25612 15.5 2.01223 15.4861 1.76834 15.4583C1.5239 15.4306 1.2864 15.3833 1.05584 15.3167C0.914177 15.2794 0.80001 15.2017 0.713344 15.0833C0.626677 14.965 0.583344 14.8342 0.583344 14.6908C0.583344 14.6042 0.597788 14.5225 0.626677 14.4458C0.655566 14.3686 0.704177 14.2992 0.77251 14.2375C1.58473 13.3875 2.21445 12.4286 2.66168 11.3608C3.10945 10.2919 3.33334 9.17167 3.33334 8C3.33334 6.82833 3.10612 5.71167 2.65168 4.65C2.19723 3.58889 1.56945 2.63167 0.768344 1.77833C0.702788 1.71667 0.655566 1.64722 0.626677 1.57C0.597788 1.49389 0.583344 1.41222 0.583344 1.325C0.583344 1.16944 0.625844 1.03278 0.710844 0.915C0.795844 0.797222 0.909455 0.719722 1.05168 0.6825C1.28501 0.616389 1.5239 0.569444 1.76834 0.541667C2.01168 0.513889 2.25557 0.5 2.50001 0.5C3.53779 0.5 4.51279 0.696667 5.42501 1.09C6.33723 1.48333 7.13112 2.0175 7.80668 2.6925C8.48223 3.3675 9.0164 4.16111 9.40918 5.07333C9.80195 5.98556 9.9989 6.96028 10 7.9975C10.0011 9.03472 9.80418 10.0097 9.40918 10.9225C9.01584 11.8353 8.48168 12.6294 7.80668 13.305C7.13168 13.9806 6.33779 14.5153 5.42501 14.9092C4.51223 15.3031 3.53723 15.5 2.50001 15.5Z" fill="#B5B7BC"/>
</svg>
