<svg width="19" height="20" viewBox="0 0 19 20" fill="none" xmlns="http://www.w3.org/2000/svg">
<path d="M25.375 20.9732C25.375 16.7785 22.0193 13.4228 17.8247 13.4228C16.6502 13.4228 15.4757 13.7584 14.469 14.2617C14.8045 13.7584 15.8112 13.7584 16.818 12.2483C16.818 12.2483 21.3482 0 11.9522 0C2.55621 0 7.08641 12.2483 7.08641 12.2483C8.09312 13.9262 9.4354 13.5906 9.4354 14.7651C9.4354 15.9396 8.26091 15.9396 7.08641 16.1074C5.24077 16.2752 3.56292 15.9396 1.88507 18.9597C0.878356 20.8054 0.375 26.8456 0.375 26.8456H17.8247C14.6367 26.8456 11.9522 24.1611 11.9522 20.9732C11.9522 17.7852 14.6367 15.1007 17.8247 15.1007C21.0126 15.1007 23.6971 17.7852 23.6971 20.9732C23.6971 24.1611 21.0126 26.8456 17.8247 26.8456H23.5294V26.0067C24.5361 24.6644 25.375 22.9866 25.375 20.9732Z" fill="#B5B7BC"/>
</svg>
