<svg width="18" height="18" viewBox="0 0 18 18" fill="none" xmlns="http://www.w3.org/2000/svg">
<path d="M6.80583 0.875H11.1942C12.1042 0.875 12.8258 0.875 13.4067 0.9225C14.0017 0.970833 14.5042 1.0725 14.9642 1.30583C15.7089 1.6857 16.3142 2.2916 16.6933 3.03667C16.9275 3.495 17.0292 3.99833 17.0775 4.59333C17.125 5.17417 17.125 5.89583 17.125 6.80583V11.1942C17.125 12.1042 17.125 12.8258 17.0775 13.4067C17.0292 14.0017 16.9275 14.5042 16.6942 14.9642C16.3145 15.7087 15.7089 16.314 14.9642 16.6933C14.5042 16.9275 14.0017 17.0292 13.4067 17.0775C12.8258 17.125 12.1042 17.125 11.1942 17.125H6.80583C5.89583 17.125 5.17417 17.125 4.59333 17.0775C3.99833 17.0292 3.49583 16.9275 3.03667 16.6942C2.29178 16.3147 1.68618 15.7091 1.30667 14.9642C1.0725 14.5042 0.970833 14.0017 0.9225 13.4067C0.875 12.8258 0.875 12.1042 0.875 11.1942V6.80583C0.875 5.89583 0.875 5.17417 0.9225 4.59333C0.970833 3.99833 1.0725 3.49583 1.30583 3.03667C1.68556 2.29166 2.29147 1.68604 3.03667 1.30667C3.495 1.0725 3.99833 0.970833 4.59333 0.9225C5.17417 0.875 5.89583 0.875 6.80583 0.875ZM7.35833 6.475C7.30111 6.41359 7.23211 6.36434 7.15545 6.33018C7.07878 6.29602 6.99602 6.27765 6.9121 6.27617C6.82818 6.27469 6.74483 6.29013 6.667 6.32156C6.58918 6.353 6.51848 6.39979 6.45914 6.45914C6.39979 6.51848 6.353 6.58918 6.32156 6.667C6.29013 6.74483 6.27469 6.82818 6.27617 6.9121C6.27765 6.99602 6.29602 7.07878 6.33018 7.15545C6.36434 7.23211 6.41359 7.30111 6.475 7.35833L6.76917 7.65333C6.82639 7.71474 6.89538 7.76399 6.97205 7.79815C7.04872 7.83231 7.13148 7.85068 7.2154 7.85216C7.29932 7.85364 7.38267 7.8382 7.4605 7.80677C7.53832 7.77533 7.60902 7.72855 7.66837 7.6692C7.72771 7.60985 7.7745 7.53916 7.80594 7.46133C7.83737 7.38351 7.85281 7.30015 7.85133 7.21623C7.84985 7.13231 7.83148 7.04955 7.79732 6.97288C7.76316 6.89622 7.71391 6.82722 7.6525 6.77L7.35833 6.475ZM10.35 10.35C10.233 10.4672 10.1672 10.626 10.1672 10.7917C10.1672 10.9573 10.233 11.1161 10.35 11.2333L10.6442 11.5283C10.7626 11.6387 10.9194 11.6988 11.0813 11.696C11.2432 11.6931 11.3977 11.6275 11.5122 11.513C11.6267 11.3985 11.6923 11.244 11.6951 11.0821C11.698 10.9202 11.6379 10.7635 11.5275 10.645L11.2333 10.35C11.1161 10.233 10.9573 10.1672 10.7917 10.1672C10.626 10.1672 10.4672 10.233 10.35 10.35ZM11.525 7.35833C11.5864 7.30111 11.6357 7.23211 11.6698 7.15545C11.704 7.07878 11.7223 6.99602 11.7238 6.9121C11.7253 6.82818 11.7099 6.74483 11.6784 6.667C11.647 6.58918 11.6002 6.51848 11.5409 6.45914C11.4815 6.39979 11.4108 6.353 11.333 6.32156C11.2552 6.29013 11.1718 6.27469 11.0879 6.27617C11.004 6.27765 10.9212 6.29602 10.8446 6.33018C10.7679 6.36434 10.6989 6.41359 10.6417 6.475L6.475 10.6417C6.41359 10.6989 6.36434 10.7679 6.33018 10.8446C6.29602 10.9212 6.27765 11.004 6.27617 11.0879C6.27469 11.1718 6.29013 11.2552 6.32156 11.333C6.353 11.4108 6.39979 11.4815 6.45914 11.5409C6.51848 11.6002 6.58918 11.647 6.667 11.6784C6.74483 11.7099 6.82818 11.7253 6.9121 11.7238C6.99602 11.7223 7.07878 11.704 7.15545 11.6698C7.23211 11.6357 7.30111 11.5864 7.35833 11.525L11.525 7.35833Z" fill="#B5B7BC"/>
</svg>
