<svg width="18" height="15" viewBox="0 0 18 15" fill="none" xmlns="http://www.w3.org/2000/svg">
<path d="M10.0825 0.623291L17.2775 13.085C17.3872 13.275 17.445 13.4905 17.445 13.7099C17.445 13.9294 17.3872 14.1449 17.2775 14.3349C17.1678 14.525 17.01 14.6828 16.82 14.7925C16.63 14.9022 16.4144 14.96 16.195 14.96H1.80499C1.58557 14.96 1.37002 14.9022 1.18 14.7925C0.989983 14.6828 0.83219 14.525 0.722483 14.3349C0.612777 14.1449 0.555022 13.9294 0.555023 13.7099C0.555025 13.4905 0.612782 13.275 0.722491 13.085L7.91749 0.623291C8.39832 -0.210042 9.60082 -0.210042 10.0825 0.623291ZM8.99999 10.5C8.77898 10.5 8.56701 10.5878 8.41073 10.744C8.25445 10.9003 8.16666 11.1123 8.16666 11.3333C8.16666 11.5543 8.25445 11.7663 8.41073 11.9225C8.56701 12.0788 8.77898 12.1666 8.99999 12.1666C9.221 12.1666 9.43297 12.0788 9.58924 11.9225C9.74553 11.7663 9.83332 11.5543 9.83332 11.3333C9.83332 11.1123 9.74553 10.9003 9.58924 10.744C9.43297 10.5878 9.221 10.5 8.99999 10.5ZM8.99999 4.66662C8.79588 4.66665 8.59888 4.74159 8.44635 4.87722C8.29382 5.01285 8.19637 5.19975 8.17249 5.40246L8.16666 5.49996V8.83329C8.16689 9.04569 8.24822 9.24999 8.39403 9.40443C8.53984 9.55888 8.73912 9.65182 8.95115 9.66427C9.16319 9.67672 9.37197 9.60773 9.53485 9.47141C9.69773 9.33508 9.8024 9.1417 9.82749 8.93079L9.83332 8.83329V5.49996C9.83332 5.27894 9.74553 5.06698 9.58924 4.9107C9.43297 4.75442 9.221 4.66662 8.99999 4.66662Z" fill="#B5B7BC"/>
</svg>
