<svg width="20" height="12" viewBox="0 0 20 12" fill="none" xmlns="http://www.w3.org/2000/svg">
<path d="M13.3333 5.16669C14.7167 5.16669 15.825 4.05002 15.825 2.66669C15.825 1.28335 14.7167 0.166687 13.3333 0.166687C11.95 0.166687 10.8333 1.28335 10.8333 2.66669C10.8333 4.05002 11.95 5.16669 13.3333 5.16669ZM6.66668 5.16669C8.05001 5.16669 9.15834 4.05002 9.15834 2.66669C9.15834 1.28335 8.05001 0.166687 6.66668 0.166687C5.28334 0.166687 4.16668 1.28335 4.16668 2.66669C4.16668 4.05002 5.28334 5.16669 6.66668 5.16669ZM6.66668 6.83335C4.72501 6.83335 0.833344 7.80835 0.833344 9.75002V11C0.833344 11.4584 1.20834 11.8334 1.66668 11.8334H11.6667C12.125 11.8334 12.5 11.4584 12.5 11V9.75002C12.5 7.80835 8.60834 6.83335 6.66668 6.83335ZM13.3333 6.83335C13.0917 6.83335 12.8167 6.85002 12.525 6.87502C12.5417 6.88335 12.55 6.90002 12.5583 6.90835C13.5083 7.60002 14.1667 8.52502 14.1667 9.75002V11C14.1667 11.2917 14.1083 11.575 14.0167 11.8334H18.3333C18.7917 11.8334 19.1667 11.4584 19.1667 11V9.75002C19.1667 7.80835 15.275 6.83335 13.3333 6.83335Z" fill="#B5B7BC"/>
</svg>
