<svg width="24" height="24" viewBox="0 0 24 24" fill="none" xmlns="http://www.w3.org/2000/svg">
<path opacity="0.5" d="M9.052 4.5C9 5.078 9 5.804 9 6.722V17.278C9 18.196 9 18.922 9.052 19.5H8C5.643 19.5 4.464 19.5 3.732 18.768C3 18.035 3 16.857 3 14.5V9.5C3 7.143 3 5.964 3.732 5.232C4.464 4.5 5.643 4.5 8 4.5H9.052Z" fill="#B5B7BC"/>
<path fill-rule="evenodd" clip-rule="evenodd" d="M9.707 2.40894C9 3.03594 9 4.18294 9 6.47594V17.5239C9 19.8169 9 20.9639 9.707 21.5909C10.414 22.2179 11.495 22.0299 13.657 21.6529L15.987 21.2469C18.381 20.8289 19.578 20.6199 20.289 19.7419C21 18.8629 21 17.5929 21 15.0519V8.94794C21 6.40794 21 5.13794 20.29 4.25894C19.578 3.38094 18.38 3.17194 15.986 2.75494L13.658 2.34794C11.496 1.97094 10.415 1.78294 9.708 2.40994M12.751 10.9549C12.751 10.5209 12.415 10.1699 12.001 10.1699C11.587 10.1699 11.251 10.5209 11.251 10.9539V13.0479C11.251 13.4809 11.587 13.8319 12.001 13.8319C12.415 13.8319 12.751 13.4809 12.751 13.0479V10.9549Z" fill="#B5B7BC"/>
</svg>
