<svg width="14" height="18" viewBox="0 0 14 18" fill="none" xmlns="http://www.w3.org/2000/svg">
<path d="M2.83334 1.49996V2.33329C2.83334 2.77532 3.00894 3.19924 3.3215 3.5118C3.63406 3.82436 4.05798 3.99996 4.50001 3.99996H9.50001C9.94204 3.99996 10.366 3.82436 10.6785 3.5118C10.9911 3.19924 11.1667 2.77532 11.1667 2.33329V1.49996H12C12.442 1.49996 12.866 1.67555 13.1785 1.98811C13.4911 2.30068 13.6667 2.7246 13.6667 3.16663V12.3333C13.6667 13.6594 13.1399 14.9311 12.2022 15.8688C11.2645 16.8065 9.99276 17.3333 8.66668 17.3333H2.00001C1.55798 17.3333 1.13406 17.1577 0.821499 16.8451C0.508938 16.5326 0.333344 16.1087 0.333344 15.6666V3.16663C0.333344 2.7246 0.508938 2.30068 0.821499 1.98811C1.13406 1.67555 1.55798 1.49996 2.00001 1.49996H2.83334ZM7.00001 10.6666H4.50001C4.279 10.6666 4.06703 10.7544 3.91075 10.9107C3.75447 11.067 3.66668 11.2789 3.66668 11.5C3.66668 11.721 3.75447 11.9329 3.91075 12.0892C4.06703 12.2455 4.279 12.3333 4.50001 12.3333H7.00001C7.22102 12.3333 7.43299 12.2455 7.58927 12.0892C7.74555 11.9329 7.83334 11.721 7.83334 11.5C7.83334 11.2789 7.74555 11.067 7.58927 10.9107C7.43299 10.7544 7.22102 10.6666 7.00001 10.6666ZM9.50001 7.33329H4.50001C4.28761 7.33353 4.08332 7.41486 3.92887 7.56067C3.77442 7.70647 3.68148 7.90575 3.66903 8.11779C3.65659 8.32982 3.72557 8.53861 3.8619 8.70149C3.99822 8.86436 4.1916 8.96904 4.40251 8.99413L4.50001 8.99996H9.50001C9.72102 8.99996 9.93299 8.91216 10.0893 8.75588C10.2455 8.5996 10.3333 8.38764 10.3333 8.16663C10.3333 7.94561 10.2455 7.73365 10.0893 7.57737C9.93299 7.42109 9.72102 7.33329 9.50001 7.33329ZM8.66668 0.666626C8.87908 0.666862 9.08337 0.748192 9.23782 0.894C9.39226 1.03981 9.48521 1.23909 9.49765 1.45112C9.5101 1.66316 9.44111 1.87194 9.30479 2.03482C9.16846 2.1977 8.97509 2.30237 8.76418 2.32746L8.66668 2.33329H5.33334C5.12094 2.33306 4.91665 2.25173 4.7622 2.10592C4.60776 1.96011 4.51481 1.76083 4.50237 1.5488C4.48992 1.33676 4.55891 1.12798 4.69523 0.965099C4.83156 0.802221 5.02493 0.697546 5.23584 0.672459L5.33334 0.666626H8.66668Z" fill="#B5B7BC"/>
</svg>
